<svg width="24" height="24" viewBox="0 0 24 24" fill="none" xmlns="http://www.w3.org/2000/svg">
<path d="M16.6667 6.16667C16.6667 5.0817 16.6667 4.53922 16.5474 4.09413C16.2238 2.88631 15.2804 1.94289 14.0725 1.61926C13.6274 1.5 13.085 1.5 12 1.5C10.915 1.5 10.3725 1.5 9.92747 1.61926C8.71964 1.94289 7.77623 2.88631 7.45259 4.09413C7.33333 4.53922 7.33333 5.0817 7.33333 6.16667M14.3333 11.4167C13.75 11.272 12.7993 11.2667 12 11.272C11.7327 11.2738 11.8943 11.2624 11.5333 11.272C10.5913 11.3014 9.66859 11.6929 9.66667 12.8021C9.66462 13.9838 10.8333 14.3334 12 14.3334C13.1667 14.3334 14.3333 14.6031 14.3333 15.8646C14.3333 16.8126 13.3913 17.228 12.2171 17.3656C11.2838 17.3656 10.8333 17.3959 9.66667 17.25M12 17.8333V19M12 9.66667V10.8333M7.1 22.5H16.9C18.8602 22.5 19.8403 22.5 20.589 22.1185C21.2475 21.783 21.783 21.2475 22.1185 20.589C22.5 19.8403 22.5 18.8602 22.5 16.9V11.7667C22.5 9.80648 22.5 8.82639 22.1185 8.0777C21.783 7.41913 21.2475 6.8837 20.589 6.54814C19.8403 6.16667 18.8602 6.16667 16.9 6.16667H7.1C5.13982 6.16667 4.15972 6.16667 3.41103 6.54814C2.75247 6.8837 2.21703 7.41913 1.88148 8.0777C1.5 8.82639 1.5 9.80648 1.5 11.7667V16.9C1.5 18.8602 1.5 19.8403 1.88148 20.589C2.21703 21.2475 2.75247 21.783 3.41103 22.1185C4.15972 22.5 5.13982 22.5 7.1 22.5Z" stroke="#2D67EC" stroke-width="2" stroke-linecap="round" stroke-linejoin="round"/>
</svg>
