<svg width="24" height="24" viewBox="0 0 24 24" fill="none" xmlns="http://www.w3.org/2000/svg">
<path d="M22.5 14.9167C21.9167 14.772 20.9659 14.7667 20.1667 14.772C19.8994 14.7738 20.061 14.7624 19.7 14.772C18.758 14.8014 17.8353 15.1929 17.8333 16.3021C17.8313 17.4838 19 17.8334 20.1667 17.8334C21.3333 17.8334 22.5 18.1031 22.5 19.3646C22.5 20.3126 21.5579 20.728 20.3838 20.8656C19.4504 20.8656 19 20.8959 17.8333 20.75M20.1667 21.3333V22.5M20.1667 13.1667V14.3333M1.5 12H14.3333M1.5 12C1.5 17.799 6.20101 22.5 12 22.5M1.5 12C1.5 6.20101 6.20101 1.5 12 1.5M12 22.5C12.3943 22.5 12.7836 22.4783 13.1667 22.4359M12 22.5C3.54822 13.26 8.47842 4.65 12 1.5M12 1.5C16.5718 1.5 20.4611 4.42183 21.9025 8.5M12 1.5C13.5632 2.89828 15.404 5.37244 16.2287 8.5" stroke="#FA6D90" stroke-width="2" stroke-linecap="round" stroke-linejoin="round"/>
</svg>
